# xmcd
#
# Track frame offsets:
#	150
#	28562
#	71989
#	114181
#	178111
#
# Disc length: 3109 seconds
#
# Revision: 1
# Processed by: cddbd v1.5.2PL0 Copyright (c) Steve Scherf et al.
# Submitted via: audiograbber 1.83.01
#
DISCID=3e0c2305
DTITLE=Grateful Dead - 95-04-02 The Pyramid, Memphis TN
DYEAR=1900
DGENRE=
TTITLE0=Here Comes Sunshine
TTITLE1=Eternity
TTITLE2=Crazy Fingers
TTITLE3=Estimated Prophet
TTITLE4=Drums
EXTD=
EXTT0=
EXTT1=
EXTT2=
EXTT3=
EXTT4=
PLAYORDER=
